<svg xmlns="http://www.w3.org/2000/svg" width="72.28mm" height="72.24mm" viewBox="0 0 204.9 204.76">
  <defs>
    <style>
      .cls-1 {
        fill: #60c2d0;
      }
    </style>
  </defs>
  <title>logosml</title>
  <g id="shutter">
    <g id="Layer_2" data-name="Layer 2">
      <path class="cls-1" d="M1932.1,129.93l-33.32,33a95.81,95.81,0,0,0,33.61,55.73Z" transform="translate(-1895.92 -38.52)"/>
    </g>
    <g id="Layer_3" data-name="Layer 3">
      <path class="cls-1" d="M1944.5,180.5l0,46.91a95.81,95.81,0,0,0,63.25,15.3Z" transform="translate(-1895.92 -38.52)"/>
    </g>
    <g id="Layer_4" data-name="Layer 4">
      <path class="cls-1" d="M1988.78,207.26l33.12,33.22a95.81,95.81,0,0,0,55.63-33.77Z" transform="translate(-1895.92 -38.52)"/>
    </g>
    <g id="Layer_5" data-name="Layer 5">
      <path class="cls-1" d="M2037.6,196l46.91.35a95.81,95.81,0,0,0,15.83-63.12Z" transform="translate(-1895.92 -38.52)"/>
    </g>
    <g id="Layer_6" data-name="Layer 6">
      <path class="cls-1" d="M2064.63,151l33.44-32.9a95.81,95.81,0,0,0-33.41-55.85Q2064.64,106.62,2064.63,151Z" transform="translate(-1895.92 -38.52)"/>
    </g>
    <g id="Layer_7" data-name="Layer 7">
      <path class="cls-1" d="M2052.25,101.58l.21-46.91A95.81,95.81,0,0,0,1989.29,39Z" transform="translate(-1895.92 -38.52)"/>
    </g>
    <g id="Layer_8" data-name="Layer 8">
      <path class="cls-1" d="M2008,75.16,1974.94,41.9a95.81,95.81,0,0,0-55.67,33.7Z" transform="translate(-1895.92 -38.52)"/>
    </g>
    <g id="Layer_9" data-name="Layer 9">
      <path class="cls-1" d="M1958.75,86.7h-46.91a95.81,95.81,0,0,0-15.36,63.24Z" transform="translate(-1895.92 -38.52)"/>
    </g>
  </g>
  <g id="bpg">
    <g>
      <path d="M1960.65,169.18h-11.54a3.91,3.91,0,0,1-3.57-1.68,10.23,10.23,0,0,1-1.07-5.33V119.73q0-3.74,1.09-5.37a4,4,0,0,1,3.54-1.64h12.24a19.35,19.35,0,0,1,4.69.5,8.24,8.24,0,0,1,3.55,1.93,11.71,11.71,0,0,1,2.37,3,15.92,15.92,0,0,1,1.57,4,19.68,19.68,0,0,1,.54,4.68q0,8.47-5.67,12.4,7.44,3.54,7.45,13.79a21.49,21.49,0,0,1-1.62,8.53,12.18,12.18,0,0,1-4.38,5.6,11.69,11.69,0,0,1-4,1.52A27.23,27.23,0,0,1,1960.65,169.18Zm-8.53-47.87v14.6h7a9.77,9.77,0,0,0,4.42-.81,5.28,5.28,0,0,0,2.38-3.08,9.73,9.73,0,0,0,.64-3.62q0-4.28-2-5.68t-6.21-1.41Zm8,22.8h-8v16.48h8.22q7.75,0,7.75-8.36,0-4.28-2-6.2T1960.08,144.1Z" transform="translate(-1895.92 -38.52)"/>
      <path d="M1997.12,147.19h-7v16a10.1,10.1,0,0,1-1.08,5.2,3,3,0,0,1-5.51,0,10.1,10.1,0,0,1-1.06-5.14V119.73q0-3.77,1.16-5.39a4.22,4.22,0,0,1,3.68-1.62h9.81a17.65,17.65,0,0,1,6.7,1,9.64,9.64,0,0,1,4,3.2,15.84,15.84,0,0,1,2.56,5.47,27.92,27.92,0,0,1,.88,7.28q0,8.63-3.56,13.08T1997.12,147.19Zm-1.85-25.88h-5.15v17.25h5.15a10.68,10.68,0,0,0,4.52-.85,5.76,5.76,0,0,0,2.77-2.77,13.56,13.56,0,0,0-.52-11.13Q2000.39,121.3,1995.27,121.3Z" transform="translate(-1895.92 -38.52)"/>
      <path d="M2052.15,146.22V157a16.75,16.75,0,0,1-.28,3.45,6.14,6.14,0,0,1-1,2.33,10.89,10.89,0,0,1-1.95,2,26.15,26.15,0,0,1-6.59,4,18.38,18.38,0,0,1-6.9,1.27,16,16,0,0,1-7.93-2,17.66,17.66,0,0,1-6.1-5.82,29.55,29.55,0,0,1-3.88-9.24,50.22,50.22,0,0,1-1.35-12.13,51.61,51.61,0,0,1,1.31-12.05,28.58,28.58,0,0,1,3.86-9.28,17.84,17.84,0,0,1,6.21-5.83,16.86,16.86,0,0,1,8.29-2,14.43,14.43,0,0,1,11.51,5.35,17.27,17.27,0,0,1,2.76,4.89,13.77,13.77,0,0,1,.93,4.58,6.24,6.24,0,0,1-1.07,3.68,3.09,3.09,0,0,1-2.56,1.52,2.58,2.58,0,0,1-1.58-.58,4.47,4.47,0,0,1-1.28-1.62,49.88,49.88,0,0,0-2.4-5,8.82,8.82,0,0,0-2.64-2.85,7.26,7.26,0,0,0-4.24-1.16,8.46,8.46,0,0,0-4.74,1.37,11.31,11.31,0,0,0-3.57,4,21.85,21.85,0,0,0-2.27,6.37,41.13,41.13,0,0,0-.79,8.36q0,9.94,3.05,15.29t8.51,5.35a12.1,12.1,0,0,0,5-1,21.77,21.77,0,0,0,4.73-3v-9.17h-5.92a4.76,4.76,0,0,1-3.23-1,4.18,4.18,0,0,1-1.09-3.27,5.1,5.1,0,0,1,.91-3.12,2.93,2.93,0,0,1,2.49-1.23H2047a7.61,7.61,0,0,1,2.71.42,3.41,3.41,0,0,1,1.79,1.89A10.85,10.85,0,0,1,2052.15,146.22Z" transform="translate(-1895.92 -38.52)"/>
    </g>
  </g>
</svg>
