<svg xmlns="http://www.w3.org/2000/svg" width="160.41mm" height="72.24mm" viewBox="0 0 454.71 204.76">
  <defs>
    <style>
      .cls-1 {
        fill: #60c2d0;
      }
    </style>
  </defs>
  <title>logo</title>
  <g id="shutter">
    <g id="Layer_2" data-name="Layer 2">
      <path class="cls-1" d="M1932.1,129.93l-33.32,33a95.81,95.81,0,0,0,33.61,55.73Z" transform="translate(-1895.92 -38.52)"/>
    </g>
    <g id="Layer_3" data-name="Layer 3">
      <path class="cls-1" d="M1944.5,180.5l0,46.91a95.81,95.81,0,0,0,63.25,15.3Z" transform="translate(-1895.92 -38.52)"/>
    </g>
    <g id="Layer_4" data-name="Layer 4">
      <path class="cls-1" d="M1988.78,207.26l33.12,33.22a95.81,95.81,0,0,0,55.63-33.77Z" transform="translate(-1895.92 -38.52)"/>
    </g>
    <g id="Layer_5" data-name="Layer 5">
      <path class="cls-1" d="M2037.6,196l46.91.35a95.81,95.81,0,0,0,15.83-63.12Z" transform="translate(-1895.92 -38.52)"/>
    </g>
    <g id="Layer_6" data-name="Layer 6">
      <path class="cls-1" d="M2064.63,151l33.44-32.9a95.81,95.81,0,0,0-33.41-55.85Q2064.64,106.62,2064.63,151Z" transform="translate(-1895.92 -38.52)"/>
    </g>
    <g id="Layer_7" data-name="Layer 7">
      <path class="cls-1" d="M2052.25,101.58l.21-46.91A95.81,95.81,0,0,0,1989.29,39Z" transform="translate(-1895.92 -38.52)"/>
    </g>
    <g id="Layer_8" data-name="Layer 8">
      <path class="cls-1" d="M2008,75.16,1974.94,41.9a95.81,95.81,0,0,0-55.67,33.7Z" transform="translate(-1895.92 -38.52)"/>
    </g>
    <g id="Layer_9" data-name="Layer 9">
      <path class="cls-1" d="M1958.75,86.7h-46.91a95.81,95.81,0,0,0-15.36,63.24Z" transform="translate(-1895.92 -38.52)"/>
    </g>
  </g>
  <g id="text">
    <g id="group">
      <g>
        <path d="M2137.43,188.82v5.37a5.65,5.65,0,0,1-.21,1.71,2.72,2.72,0,0,1-.77,1.16,7.3,7.3,0,0,1-1.44,1,22.7,22.7,0,0,1-4.89,2,19.7,19.7,0,0,1-5.12.63,16.68,16.68,0,0,1-5.88-1,12.37,12.37,0,0,1-4.53-2.88,12.72,12.72,0,0,1-2.87-4.58,17.13,17.13,0,0,1-1-6,17.57,17.57,0,0,1,1-6,12.27,12.27,0,0,1,2.87-4.6,12.57,12.57,0,0,1,4.6-2.89,17.65,17.65,0,0,1,6.15-1,15.25,15.25,0,0,1,5,.75,11,11,0,0,1,3.53,1.9,8.49,8.49,0,0,1,2,2.43,4.93,4.93,0,0,1,.69,2.27,2.43,2.43,0,0,1-.79,1.82,2.66,2.66,0,0,1-1.9.75,2.56,2.56,0,0,1-1.17-.29,2.67,2.67,0,0,1-.95-.8,22.65,22.65,0,0,0-1.78-2.48,5.74,5.74,0,0,0-2-1.41,7.47,7.47,0,0,0-3.14-.57,8.67,8.67,0,0,0-3.51.68,7.27,7.27,0,0,0-2.65,2,8.85,8.85,0,0,0-1.68,3.16,13.89,13.89,0,0,0-.58,4.15q0,4.93,2.26,7.58a7.85,7.85,0,0,0,6.31,2.66,12.87,12.87,0,0,0,3.7-.52,18.75,18.75,0,0,0,3.5-1.47v-4.55h-4.39a4.81,4.81,0,0,1-2.4-.48,1.73,1.73,0,0,1-.81-1.62,2,2,0,0,1,.68-1.55,2.65,2.65,0,0,1,1.84-.61h6.44a8.23,8.23,0,0,1,2,.21,2.27,2.27,0,0,1,1.33.94A3.83,3.83,0,0,1,2137.43,188.82Z" transform="translate(-1895.92 -38.52)"/>
        <path d="M2147.65,193.15v4.35a3.36,3.36,0,0,1-.74,2.38,2.49,2.49,0,0,1-1.89.79,2.39,2.39,0,0,1-1.85-.8,3.42,3.42,0,0,1-.73-2.37V183q0-3.51,2.54-3.51a2.12,2.12,0,0,1,1.87.82,4.53,4.53,0,0,1,.63,2.43,9.12,9.12,0,0,1,1.92-2.43,4,4,0,0,1,2.63-.82,6.73,6.73,0,0,1,3.19.82,2.45,2.45,0,0,1,1.55,2.18,2.07,2.07,0,0,1-.66,1.58,2,2,0,0,1-1.42.62,6.54,6.54,0,0,1-1.38-.35,6.45,6.45,0,0,0-1.94-.35,2.83,2.83,0,0,0-1.87.6,3.86,3.86,0,0,0-1.13,1.79,12.45,12.45,0,0,0-.55,2.82Q2147.65,190.8,2147.65,193.15Z" transform="translate(-1895.92 -38.52)"/>
        <path d="M2177.64,190.08a12.34,12.34,0,0,1-.73,4.3,9.5,9.5,0,0,1-2.1,3.38,9.27,9.27,0,0,1-3.29,2.17,11.62,11.62,0,0,1-4.3.75,11.28,11.28,0,0,1-4.26-.76,9.4,9.4,0,0,1-5.38-5.55,12.29,12.29,0,0,1-.72-4.29,12.43,12.43,0,0,1,.73-4.34,9.43,9.43,0,0,1,2.08-3.36,9.18,9.18,0,0,1,3.29-2.15,12.43,12.43,0,0,1,8.56,0,9.24,9.24,0,0,1,5.4,5.54A12.37,12.37,0,0,1,2177.64,190.08Zm-5.23,0a7.82,7.82,0,0,0-1.4-5,4.56,4.56,0,0,0-3.77-1.78,4.67,4.67,0,0,0-2.69.79,5,5,0,0,0-1.8,2.34,10.63,10.63,0,0,0,0,7.18,5.12,5.12,0,0,0,1.78,2.34,4.61,4.61,0,0,0,2.72.81A4.55,4.55,0,0,0,2171,195,7.79,7.79,0,0,0,2172.4,190.08Z" transform="translate(-1895.92 -38.52)"/>
        <path d="M2195.29,197.74v-.67a11.63,11.63,0,0,1-2,2,7.26,7.26,0,0,1-2.25,1.19,9.15,9.15,0,0,1-2.79.39,7.22,7.22,0,0,1-3.39-.78,5.71,5.71,0,0,1-2.32-2.16,9.55,9.55,0,0,1-1-4.78V182.59a3.37,3.37,0,0,1,.71-2.34,2.41,2.41,0,0,1,1.87-.77,2.48,2.48,0,0,1,1.91.78,3.32,3.32,0,0,1,.73,2.33v8.35a12.86,12.86,0,0,0,.31,3,3.65,3.65,0,0,0,1.1,1.93,3.14,3.14,0,0,0,2.15.7,4.37,4.37,0,0,0,2.48-.78,4.57,4.57,0,0,0,1.7-2,16.42,16.42,0,0,0,.44-4.85v-6.34a3.32,3.32,0,0,1,.73-2.33,2.46,2.46,0,0,1,1.89-.78,2.42,2.42,0,0,1,1.87.77,3.37,3.37,0,0,1,.71,2.34V197.7a3.22,3.22,0,0,1-.68,2.23,2.41,2.41,0,0,1-3.51,0A3.12,3.12,0,0,1,2195.29,197.74Z" transform="translate(-1895.92 -38.52)"/>
        <path d="M2210.18,182.4V183a10.31,10.31,0,0,1,3.06-2.66,7.48,7.48,0,0,1,3.59-.85,8.32,8.32,0,0,1,4.43,1.24,8.56,8.56,0,0,1,3.2,3.63,12.68,12.68,0,0,1,1.17,5.65,13.82,13.82,0,0,1-.68,4.42,9.92,9.92,0,0,1-1.86,3.38,8.13,8.13,0,0,1-2.8,2.1,8.26,8.26,0,0,1-3.47.74,7.26,7.26,0,0,1-3.75-.9,10.72,10.72,0,0,1-2.89-2.64V205q0,3.44-2.5,3.44a2,2,0,0,1-1.95-.89,5.59,5.59,0,0,1-.48-2.59v-22.5a3.28,3.28,0,0,1,.65-2.23,2.25,2.25,0,0,1,1.78-.74,2.35,2.35,0,0,1,1.81.75A3.08,3.08,0,0,1,2210.18,182.4ZM2220.4,190a9,9,0,0,0-.63-3.54,5.2,5.2,0,0,0-1.75-2.27,4.19,4.19,0,0,0-2.47-.79,4.64,4.64,0,0,0-3.64,1.7,7.42,7.42,0,0,0-1.48,5,7.25,7.25,0,0,0,1.47,4.84,4.6,4.6,0,0,0,3.65,1.73,4.19,4.19,0,0,0,2.41-.75,5.19,5.19,0,0,0,1.78-2.26A9,9,0,0,0,2220.4,190Z" transform="translate(-1895.92 -38.52)"/>
      </g>
    </g>
    <g id="photo">
      <g>
        <path d="M2122.72,142.51h-5.2v7.93a3.7,3.7,0,0,1-.8,2.58,2.83,2.83,0,0,1-4.09,0,3.69,3.69,0,0,1-.78-2.55V128.89a3.53,3.53,0,0,1,.86-2.67,3.91,3.91,0,0,1,2.73-.8h7.28a19.08,19.08,0,0,1,5,.5,7.4,7.4,0,0,1,3,1.59,7.15,7.15,0,0,1,1.9,2.71,9.53,9.53,0,0,1,.65,3.61,8,8,0,0,1-2.64,6.48Q2127.94,142.51,2122.72,142.51Zm-1.38-12.84h-3.82v8.56h3.82a11.41,11.41,0,0,0,3.35-.42,3.91,3.91,0,0,0,2.05-1.38,4.1,4.1,0,0,0,.71-2.5,4.24,4.24,0,0,0-1.09-3Q2125.15,129.67,2121.35,129.67Z" transform="translate(-1895.92 -38.52)"/>
        <path d="M2142.68,128.11v7.74a11.18,11.18,0,0,1,1.94-1.81,7,7,0,0,1,2.09-1,8.77,8.77,0,0,1,2.46-.33,7.23,7.23,0,0,1,3.52.84,6.53,6.53,0,0,1,3.16,4.54,16.55,16.55,0,0,1,.19,2.66v10a3.45,3.45,0,0,1-.72,2.37,2.42,2.42,0,0,1-1.9.8q-2.58,0-2.58-3.17v-8.81a8.08,8.08,0,0,0-.74-3.85,2.94,2.94,0,0,0-2.83-1.35,4.24,4.24,0,0,0-2.51.79,4.77,4.77,0,0,0-1.67,2.17,13.87,13.87,0,0,0-.42,4.15v6.9a3.52,3.52,0,0,1-.7,2.36,2.42,2.42,0,0,1-1.94.81q-2.58,0-2.58-3.17V128.11a3.58,3.58,0,0,1,.68-2.38,2.37,2.37,0,0,1,1.9-.79,2.43,2.43,0,0,1,1.94.8A3.52,3.52,0,0,1,2142.68,128.11Z" transform="translate(-1895.92 -38.52)"/>
        <path d="M2180.73,143.29a12.34,12.34,0,0,1-.73,4.3,9.5,9.5,0,0,1-2.1,3.38,9.27,9.27,0,0,1-3.29,2.17,11.62,11.62,0,0,1-4.3.75,11.28,11.28,0,0,1-4.26-.76,9.4,9.4,0,0,1-5.38-5.55,12.29,12.29,0,0,1-.72-4.29,12.43,12.43,0,0,1,.73-4.34,9.43,9.43,0,0,1,2.08-3.36,9.18,9.18,0,0,1,3.29-2.15,12.43,12.43,0,0,1,8.56,0A9.24,9.24,0,0,1,2180,139,12.37,12.37,0,0,1,2180.73,143.29Zm-5.23,0a7.82,7.82,0,0,0-1.4-5,4.56,4.56,0,0,0-3.77-1.78,4.67,4.67,0,0,0-2.69.79,5,5,0,0,0-1.8,2.34,10.63,10.63,0,0,0,0,7.18,5.12,5.12,0,0,0,1.78,2.34,4.61,4.61,0,0,0,2.72.81,4.55,4.55,0,0,0,3.77-1.79A7.79,7.79,0,0,0,2175.5,143.29Z" transform="translate(-1895.92 -38.52)"/>
        <path d="M2185.12,133.15h.57V130q0-1.26.07-2a2.92,2.92,0,0,1,.37-1.23,2.34,2.34,0,0,1,.88-.87,2.49,2.49,0,0,1,1.28-.33,2.58,2.58,0,0,1,1.8.75,2.21,2.21,0,0,1,.68,1.21,11,11,0,0,1,.14,2v3.55h1.91a2.44,2.44,0,0,1,1.69.53,1.73,1.73,0,0,1,.58,1.35,1.51,1.51,0,0,1-.83,1.47,5.39,5.39,0,0,1-2.38.42h-1v9.59a15.48,15.48,0,0,0,.09,1.88,1.91,1.91,0,0,0,.46,1.07,1.57,1.57,0,0,0,1.21.41,6.5,6.5,0,0,0,1.24-.16,6.44,6.44,0,0,1,1.22-.16,1.57,1.57,0,0,1,1.14.51,1.7,1.7,0,0,1,.51,1.25,2.09,2.09,0,0,1-1.37,1.93,9.3,9.3,0,0,1-4,.67,6.83,6.83,0,0,1-3.71-.82,3.81,3.81,0,0,1-1.65-2.27,15.43,15.43,0,0,1-.39-3.88v-10H2185a2.48,2.48,0,0,1-1.72-.53,1.75,1.75,0,0,1-.59-1.36,1.68,1.68,0,0,1,.62-1.35A2.72,2.72,0,0,1,2185.12,133.15Z" transform="translate(-1895.92 -38.52)"/>
        <path d="M2218.21,143.29a12.34,12.34,0,0,1-.73,4.3,9.5,9.5,0,0,1-2.1,3.38,9.27,9.27,0,0,1-3.29,2.17,11.62,11.62,0,0,1-4.3.75,11.28,11.28,0,0,1-4.26-.76,9.4,9.4,0,0,1-5.38-5.55,12.29,12.29,0,0,1-.72-4.29,12.43,12.43,0,0,1,.73-4.34,9.43,9.43,0,0,1,2.08-3.36,9.18,9.18,0,0,1,3.29-2.15,12.43,12.43,0,0,1,8.56,0,9.24,9.24,0,0,1,5.4,5.54A12.37,12.37,0,0,1,2218.21,143.29Zm-5.23,0a7.82,7.82,0,0,0-1.4-5,4.56,4.56,0,0,0-3.77-1.78,4.67,4.67,0,0,0-2.69.79,5,5,0,0,0-1.8,2.34,10.63,10.63,0,0,0,0,7.18,5.12,5.12,0,0,0,1.78,2.34,4.61,4.61,0,0,0,2.72.81,4.55,4.55,0,0,0,3.77-1.79A7.79,7.79,0,0,0,2213,143.29Z" transform="translate(-1895.92 -38.52)"/>
        <path d="M2241.49,136.51v15.15a15.88,15.88,0,0,1-.55,4.47,7.16,7.16,0,0,1-1.78,3.09A7.46,7.46,0,0,1,2236,161a17.41,17.41,0,0,1-4.92.59,14.32,14.32,0,0,1-4.81-.75,8.32,8.32,0,0,1-3.27-1.95,3.55,3.55,0,0,1-1.15-2.45,2,2,0,0,1,.65-1.56,2.22,2.22,0,0,1,1.57-.6,2.57,2.57,0,0,1,2,1l.87,1a5,5,0,0,0,1,.9,3.87,3.87,0,0,0,1.31.55,7.66,7.66,0,0,0,1.76.18,7.12,7.12,0,0,0,3.14-.56,3.22,3.22,0,0,0,1.57-1.58,6.32,6.32,0,0,0,.53-2.17q.08-1.16.12-3.71a8.58,8.58,0,0,1-2.78,2.56,7.6,7.6,0,0,1-3.75.88,7.91,7.91,0,0,1-4.57-1.34,8.53,8.53,0,0,1-3-3.74,13.79,13.79,0,0,1-1-5.56,13.18,13.18,0,0,1,.64-4.24,8.89,8.89,0,0,1,1.82-3.19,7.8,7.8,0,0,1,2.73-2,8.58,8.58,0,0,1,3.4-.66,8.18,8.18,0,0,1,3.84.85,9.35,9.35,0,0,1,3,2.66v-.71a3,3,0,0,1,.67-2.1,2.2,2.2,0,0,1,1.72-.75,2,2,0,0,1,2,1A6.47,6.47,0,0,1,2241.49,136.51Zm-15.11,6.61a7.21,7.21,0,0,0,1.38,4.79,4.49,4.49,0,0,0,3.58,1.62,4.67,4.67,0,0,0,2.46-.7,5.12,5.12,0,0,0,1.88-2.1,7.34,7.34,0,0,0,.73-3.41,7.83,7.83,0,0,0-1.4-5,4.48,4.48,0,0,0-3.7-1.78,4.34,4.34,0,0,0-3.58,1.7A7.62,7.62,0,0,0,2226.38,143.12Z" transform="translate(-1895.92 -38.52)"/>
        <path d="M2251.42,146.37v4.35a3.36,3.36,0,0,1-.74,2.38,2.49,2.49,0,0,1-1.89.79,2.39,2.39,0,0,1-1.85-.8,3.42,3.42,0,0,1-.73-2.37V136.21q0-3.51,2.54-3.51a2.12,2.12,0,0,1,1.87.82,4.53,4.53,0,0,1,.63,2.43,9.12,9.12,0,0,1,1.92-2.43,4,4,0,0,1,2.63-.82,6.73,6.73,0,0,1,3.19.82,2.45,2.45,0,0,1,1.55,2.18,2.07,2.07,0,0,1-.66,1.58,2,2,0,0,1-1.42.62,6.54,6.54,0,0,1-1.38-.35,6.45,6.45,0,0,0-1.94-.35,2.83,2.83,0,0,0-1.87.6,3.86,3.86,0,0,0-1.13,1.79,12.45,12.45,0,0,0-.55,2.82Q2251.42,144,2251.42,146.37Z" transform="translate(-1895.92 -38.52)"/>
        <path d="M2275.59,151a16.16,16.16,0,0,1-3.66,2.21,10.23,10.23,0,0,1-4,.74,7.51,7.51,0,0,1-3.52-.79,5.79,5.79,0,0,1-2.34-2.15,5.57,5.57,0,0,1-.82-2.94,5.27,5.27,0,0,1,1.36-3.65,6.78,6.78,0,0,1,3.72-2l2.46-.52q2-.4,3.37-.74t3-.81a5.44,5.44,0,0,0-.83-3q-.74-1-3-1a6.35,6.35,0,0,0-3,.55,4.85,4.85,0,0,0-1.72,1.66,17.58,17.58,0,0,1-1,1.46,1.66,1.66,0,0,1-1.27.35,2.22,2.22,0,0,1-1.52-.56,1.83,1.83,0,0,1-.64-1.44,4.41,4.41,0,0,1,1-2.67,7,7,0,0,1,3-2.14,13.68,13.68,0,0,1,5.14-.84,14.55,14.55,0,0,1,5.41.81,5,5,0,0,1,2.78,2.57,11.24,11.24,0,0,1,.81,4.66q0,1.83,0,3.11t0,2.85a10.47,10.47,0,0,0,.49,3.07,9.71,9.71,0,0,1,.49,2.05,1.92,1.92,0,0,1-.75,1.46,2.53,2.53,0,0,1-1.71.66,2.31,2.31,0,0,1-1.59-.75A11.15,11.15,0,0,1,2275.59,151Zm-.34-7.54a26.22,26.22,0,0,1-3.33.89q-2.19.47-3,.69a4.13,4.13,0,0,0-1.6.86,2.2,2.2,0,0,0-.76,1.79,2.64,2.64,0,0,0,.9,2,3.32,3.32,0,0,0,2.35.83,6.11,6.11,0,0,0,2.86-.68,4.53,4.53,0,0,0,1.92-1.75,8,8,0,0,0,.71-3.9Z" transform="translate(-1895.92 -38.52)"/>
        <path d="M2289.95,135.61v.63a10.31,10.31,0,0,1,3.06-2.66,7.48,7.48,0,0,1,3.59-.85A8.32,8.32,0,0,1,2301,134a8.56,8.56,0,0,1,3.2,3.63,12.68,12.68,0,0,1,1.17,5.65,13.82,13.82,0,0,1-.68,4.42,9.92,9.92,0,0,1-1.86,3.38,8.13,8.13,0,0,1-2.8,2.1,8.26,8.26,0,0,1-3.47.74,7.26,7.26,0,0,1-3.75-.9,10.72,10.72,0,0,1-2.89-2.64v7.83q0,3.44-2.5,3.44a2,2,0,0,1-1.95-.89,5.59,5.59,0,0,1-.48-2.59v-22.5a3.28,3.28,0,0,1,.65-2.23,2.25,2.25,0,0,1,1.78-.74,2.35,2.35,0,0,1,1.81.75A3.08,3.08,0,0,1,2289.95,135.61Zm10.22,7.58a9,9,0,0,0-.63-3.54,5.2,5.2,0,0,0-1.75-2.27,4.19,4.19,0,0,0-2.47-.79,4.64,4.64,0,0,0-3.64,1.7,7.42,7.42,0,0,0-1.48,5,7.25,7.25,0,0,0,1.47,4.84,4.6,4.6,0,0,0,3.65,1.73,4.19,4.19,0,0,0,2.41-.75,5.19,5.19,0,0,0,1.78-2.26A9,9,0,0,0,2300.17,143.2Z" transform="translate(-1895.92 -38.52)"/>
        <path d="M2314.68,128.11v7.74a11.18,11.18,0,0,1,1.94-1.81,7,7,0,0,1,2.09-1,8.77,8.77,0,0,1,2.46-.33,7.23,7.23,0,0,1,3.52.84,6.53,6.53,0,0,1,3.16,4.54,16.55,16.55,0,0,1,.19,2.66v10a3.45,3.45,0,0,1-.72,2.37,2.42,2.42,0,0,1-1.9.8q-2.58,0-2.58-3.17v-8.81a8.08,8.08,0,0,0-.74-3.85,2.94,2.94,0,0,0-2.83-1.35,4.24,4.24,0,0,0-2.51.79,4.77,4.77,0,0,0-1.67,2.17,13.87,13.87,0,0,0-.42,4.15v6.9a3.52,3.52,0,0,1-.7,2.36,2.42,2.42,0,0,1-1.94.81q-2.58,0-2.58-3.17V128.11a3.58,3.58,0,0,1,.68-2.38,2.37,2.37,0,0,1,1.9-.79,2.43,2.43,0,0,1,1.94.8A3.52,3.52,0,0,1,2314.68,128.11Z" transform="translate(-1895.92 -38.52)"/>
        <path d="M2338,154.54l.48-1.17-6.42-16.16a6.05,6.05,0,0,1-.59-2,2.37,2.37,0,0,1,.34-1.24,2.55,2.55,0,0,1,.95-.92,2.49,2.49,0,0,1,1.25-.34,2,2,0,0,1,1.7.72,6.62,6.62,0,0,1,1,2.05l4.41,12.84,4.18-11.94a20.56,20.56,0,0,1,.9-2.27,2.68,2.68,0,0,1,.85-1.11,2.36,2.36,0,0,1,1.27-.29,2.24,2.24,0,0,1,1.14.31,2.2,2.2,0,0,1,.84.85,2.3,2.3,0,0,1,.3,1.13c-.05.24-.13.59-.25,1s-.25.9-.42,1.36l-6.8,17.8a20.88,20.88,0,0,1-1.72,3.69,5.66,5.66,0,0,1-2.23,2.05,8.19,8.19,0,0,1-3.73.72,9.08,9.08,0,0,1-3.44-.5,1.81,1.81,0,0,1-1.15-1.81,1.76,1.76,0,0,1,.54-1.38,2.35,2.35,0,0,1,1.61-.49,3,3,0,0,1,.82.11,3.92,3.92,0,0,0,.86.11,3.1,3.1,0,0,0,1.41-.27,2.48,2.48,0,0,0,.93-.93A14.35,14.35,0,0,0,2338,154.54Z" transform="translate(-1895.92 -38.52)"/>
      </g>
    </g>
    <g id="bristol">
      <g>
        <path d="M2123.81,106.43h-8.56a3.54,3.54,0,0,1-2.65-.83,3.73,3.73,0,0,1-.79-2.65v-21a3.66,3.66,0,0,1,.81-2.66,3.6,3.6,0,0,1,2.63-.81h9.07a21.17,21.17,0,0,1,3.48.25,7.41,7.41,0,0,1,2.64,1,6.94,6.94,0,0,1,1.76,1.5,6.63,6.63,0,0,1,1.17,2,6.71,6.71,0,0,1,.4,2.32q0,4.2-4.2,6.15,5.52,1.76,5.52,6.84a7.69,7.69,0,0,1-1.2,4.23,7.23,7.23,0,0,1-3.25,2.78,11.54,11.54,0,0,1-2.94.75A30,30,0,0,1,2123.81,106.43Zm-6.32-23.74v7.24h5.2a10.45,10.45,0,0,0,3.28-.4,3.13,3.13,0,0,0,1.77-1.53,3.44,3.44,0,0,0,.48-1.8,2.79,2.79,0,0,0-1.51-2.82,11.53,11.53,0,0,0-4.6-.7Zm5.9,11.31h-5.9v8.18h6.09q5.75,0,5.75-4.15a3.38,3.38,0,0,0-1.49-3.08A8.34,8.34,0,0,0,2123.39,94Z" transform="translate(-1895.92 -38.52)"/>
        <path d="M2144.8,99.39v4.35a3.36,3.36,0,0,1-.74,2.38,2.49,2.49,0,0,1-1.89.79,2.39,2.39,0,0,1-1.85-.8,3.42,3.42,0,0,1-.73-2.37V89.23q0-3.51,2.54-3.51a2.12,2.12,0,0,1,1.87.82,4.53,4.53,0,0,1,.63,2.43,9.12,9.12,0,0,1,1.92-2.43,4,4,0,0,1,2.63-.82,6.73,6.73,0,0,1,3.19.82,2.45,2.45,0,0,1,1.55,2.18,2.07,2.07,0,0,1-.66,1.58,2,2,0,0,1-1.42.62,6.54,6.54,0,0,1-1.38-.35,6.45,6.45,0,0,0-1.94-.35,2.83,2.83,0,0,0-1.87.6,3.86,3.86,0,0,0-1.13,1.79,12.45,12.45,0,0,0-.55,2.82Q2144.8,97,2144.8,99.39Z" transform="translate(-1895.92 -38.52)"/>
        <path d="M2159.4,83.28a2.75,2.75,0,0,1-1.86-.67,2.59,2.59,0,0,1,0-3.72,2.66,2.66,0,0,1,1.84-.72,2.74,2.74,0,0,1,1.8.65,2.32,2.32,0,0,1,.78,1.89,2.39,2.39,0,0,1-.76,1.88A2.64,2.64,0,0,1,2159.4,83.28Zm2.58,5.39v15.07a3.37,3.37,0,0,1-.74,2.37,2.47,2.47,0,0,1-1.89.8,2.36,2.36,0,0,1-1.86-.82,3.47,3.47,0,0,1-.72-2.35V88.82a3.35,3.35,0,0,1,.72-2.33,2.41,2.41,0,0,1,1.86-.78,2.5,2.5,0,0,1,1.89.78A3,3,0,0,1,2162,88.67Z" transform="translate(-1895.92 -38.52)"/>
        <path d="M2184.15,100.09a6,6,0,0,1-4.15,6,13.93,13.93,0,0,1-5,.79,12.18,12.18,0,0,1-4.81-.86,7,7,0,0,1-3-2.15,4.33,4.33,0,0,1-1-2.59,2,2,0,0,1,.61-1.47,2.1,2.1,0,0,1,1.55-.61,1.8,1.8,0,0,1,1.26.4,4.4,4.4,0,0,1,.84,1.13,5.71,5.71,0,0,0,1.92,2.08,5.79,5.79,0,0,0,3,.69,4.4,4.4,0,0,0,2.57-.7,2,2,0,0,0,1-1.59,2.17,2.17,0,0,0-1-2,12.88,12.88,0,0,0-3.43-1.2,28.37,28.37,0,0,1-4.38-1.4,7.22,7.22,0,0,1-2.7-1.94,4.44,4.44,0,0,1-1-3,5.22,5.22,0,0,1,.94-3,6.42,6.42,0,0,1,2.76-2.23,10.57,10.57,0,0,1,4.4-.83,14.46,14.46,0,0,1,3.64.42,9.06,9.06,0,0,1,2.69,1.13,5.57,5.57,0,0,1,1.64,1.57,3.07,3.07,0,0,1,.56,1.68,1.94,1.94,0,0,1-.6,1.47,2.38,2.38,0,0,1-1.71.57,2.1,2.1,0,0,1-1.37-.46,9.06,9.06,0,0,1-1.29-1.37,4.71,4.71,0,0,0-1.39-1.22,4.39,4.39,0,0,0-2.18-.46,4.26,4.26,0,0,0-2.35.6,1.75,1.75,0,0,0-.94,1.5,1.62,1.62,0,0,0,.69,1.35,5.68,5.68,0,0,0,1.85.87q1.16.34,3.21.84a17.15,17.15,0,0,1,4,1.41,6.59,6.59,0,0,1,2.33,1.94A4.3,4.3,0,0,1,2184.15,100.09Z" transform="translate(-1895.92 -38.52)"/>
        <path d="M2188.85,86.17h.57V83q0-1.26.07-2a2.92,2.92,0,0,1,.37-1.23,2.34,2.34,0,0,1,.88-.87,2.49,2.49,0,0,1,1.28-.33,2.58,2.58,0,0,1,1.8.75,2.21,2.21,0,0,1,.68,1.21,11,11,0,0,1,.14,2v3.55h1.91a2.44,2.44,0,0,1,1.69.53,1.73,1.73,0,0,1,.58,1.35,1.51,1.51,0,0,1-.83,1.47,5.39,5.39,0,0,1-2.38.42h-1v9.59a15.48,15.48,0,0,0,.09,1.88,1.91,1.91,0,0,0,.46,1.07,1.57,1.57,0,0,0,1.21.41,6.5,6.5,0,0,0,1.24-.16,6.44,6.44,0,0,1,1.22-.16,1.57,1.57,0,0,1,1.14.51,1.7,1.7,0,0,1,.51,1.25,2.09,2.09,0,0,1-1.37,1.93,9.3,9.3,0,0,1-4,.67,6.83,6.83,0,0,1-3.71-.82,3.81,3.81,0,0,1-1.65-2.27,15.43,15.43,0,0,1-.39-3.88v-10h-.69a2.48,2.48,0,0,1-1.72-.53,1.75,1.75,0,0,1-.59-1.36,1.68,1.68,0,0,1,.62-1.35A2.72,2.72,0,0,1,2188.85,86.17Z" transform="translate(-1895.92 -38.52)"/>
        <path d="M2221.93,96.31a12.34,12.34,0,0,1-.73,4.3,9.5,9.5,0,0,1-2.1,3.38,9.27,9.27,0,0,1-3.29,2.17,11.62,11.62,0,0,1-4.3.75,11.28,11.28,0,0,1-4.26-.76,9.4,9.4,0,0,1-5.38-5.55,12.29,12.29,0,0,1-.72-4.29,12.43,12.43,0,0,1,.73-4.34,9.43,9.43,0,0,1,2.08-3.36,9.18,9.18,0,0,1,3.29-2.15,12.43,12.43,0,0,1,8.56,0,9.24,9.24,0,0,1,5.4,5.54A12.37,12.37,0,0,1,2221.93,96.31Zm-5.23,0a7.82,7.82,0,0,0-1.4-5,4.56,4.56,0,0,0-3.77-1.78,4.67,4.67,0,0,0-2.69.79,5,5,0,0,0-1.8,2.34,10.63,10.63,0,0,0,0,7.18,5.12,5.12,0,0,0,1.78,2.34,4.61,4.61,0,0,0,2.72.81,4.55,4.55,0,0,0,3.77-1.79A7.79,7.79,0,0,0,2216.7,96.31Z" transform="translate(-1895.92 -38.52)"/>
        <path d="M2226,103.74V81.13a3.52,3.52,0,0,1,.7-2.37,2.37,2.37,0,0,1,1.88-.8,2.47,2.47,0,0,1,1.91.79,3.42,3.42,0,0,1,.73,2.38v22.61a3.39,3.39,0,0,1-.74,2.38,2.48,2.48,0,0,1-1.9.79,2.36,2.36,0,0,1-1.86-.82A3.47,3.47,0,0,1,2226,103.74Z" transform="translate(-1895.92 -38.52)"/>
      </g>
    </g>
  </g>
  <g id="bpg">
    <g>
      <path d="M1960.65,169.18h-11.54a3.91,3.91,0,0,1-3.57-1.68,10.23,10.23,0,0,1-1.07-5.33V119.73q0-3.74,1.09-5.37a4,4,0,0,1,3.54-1.64h12.24a19.35,19.35,0,0,1,4.69.5,8.24,8.24,0,0,1,3.55,1.93,11.71,11.71,0,0,1,2.37,3,15.92,15.92,0,0,1,1.57,4,19.68,19.68,0,0,1,.54,4.68q0,8.47-5.67,12.4,7.44,3.54,7.45,13.79a21.49,21.49,0,0,1-1.62,8.53,12.18,12.18,0,0,1-4.38,5.6,11.69,11.69,0,0,1-4,1.52A27.23,27.23,0,0,1,1960.65,169.18Zm-8.53-47.87v14.6h7a9.77,9.77,0,0,0,4.42-.81,5.28,5.28,0,0,0,2.38-3.08,9.73,9.73,0,0,0,.64-3.62q0-4.28-2-5.68t-6.21-1.41Zm8,22.8h-8v16.48h8.22q7.75,0,7.75-8.36,0-4.28-2-6.2T1960.08,144.1Z" transform="translate(-1895.92 -38.52)"/>
      <path d="M1997.12,147.19h-7v16a10.1,10.1,0,0,1-1.08,5.2,3,3,0,0,1-5.51,0,10.1,10.1,0,0,1-1.06-5.14V119.73q0-3.77,1.16-5.39a4.22,4.22,0,0,1,3.68-1.62h9.81a17.65,17.65,0,0,1,6.7,1,9.64,9.64,0,0,1,4,3.2,15.84,15.84,0,0,1,2.56,5.47,27.92,27.92,0,0,1,.88,7.28q0,8.63-3.56,13.08T1997.12,147.19Zm-1.85-25.88h-5.15v17.25h5.15a10.68,10.68,0,0,0,4.52-.85,5.76,5.76,0,0,0,2.77-2.77,13.56,13.56,0,0,0-.52-11.13Q2000.39,121.3,1995.27,121.3Z" transform="translate(-1895.92 -38.52)"/>
      <path d="M2052.15,146.22V157a16.75,16.75,0,0,1-.28,3.45,6.14,6.14,0,0,1-1,2.33,10.89,10.89,0,0,1-1.95,2,26.15,26.15,0,0,1-6.59,4,18.38,18.38,0,0,1-6.9,1.27,16,16,0,0,1-7.93-2,17.66,17.66,0,0,1-6.1-5.82,29.55,29.55,0,0,1-3.88-9.24,50.22,50.22,0,0,1-1.35-12.13,51.61,51.61,0,0,1,1.31-12.05,28.58,28.58,0,0,1,3.86-9.28,17.84,17.84,0,0,1,6.21-5.83,16.86,16.86,0,0,1,8.29-2,14.43,14.43,0,0,1,11.51,5.35,17.27,17.27,0,0,1,2.76,4.89,13.77,13.77,0,0,1,.93,4.58,6.24,6.24,0,0,1-1.07,3.68,3.09,3.09,0,0,1-2.56,1.52,2.58,2.58,0,0,1-1.58-.58,4.47,4.47,0,0,1-1.28-1.62,49.88,49.88,0,0,0-2.4-5,8.82,8.82,0,0,0-2.64-2.85,7.26,7.26,0,0,0-4.24-1.16,8.46,8.46,0,0,0-4.74,1.37,11.31,11.31,0,0,0-3.57,4,21.85,21.85,0,0,0-2.27,6.37,41.13,41.13,0,0,0-.79,8.36q0,9.94,3.05,15.29t8.51,5.35a12.1,12.1,0,0,0,5-1,21.77,21.77,0,0,0,4.73-3v-9.17h-5.92a4.76,4.76,0,0,1-3.23-1,4.18,4.18,0,0,1-1.09-3.27,5.1,5.1,0,0,1,.91-3.12,2.93,2.93,0,0,1,2.49-1.23H2047a7.61,7.61,0,0,1,2.71.42,3.41,3.41,0,0,1,1.79,1.89A10.85,10.85,0,0,1,2052.15,146.22Z" transform="translate(-1895.92 -38.52)"/>
    </g>
  </g>
</svg>
