<?xml version="1.0" standalone="no"?>
<!DOCTYPE svg PUBLIC "-//W3C//DTD SVG 20010904//EN"
 "http://www.w3.org/TR/2001/REC-SVG-20010904/DTD/svg10.dtd">
<svg version="1.0" xmlns="http://www.w3.org/2000/svg"
 width="16.000000pt" height="16.000000pt" viewBox="0 0 16.000000 16.000000"
 preserveAspectRatio="xMidYMid meet">
<metadata>
Created by potrace 1.11, written by Peter Selinger 2001-2013
</metadata>
<g transform="translate(0.000000,16.000000) scale(0.002286,-0.002286)"
fill="#000000" stroke="none">
<path d="M3308 6995 c-2 -2 -24 -5 -48 -6 -25 -1 -50 -4 -56 -6 -6 -2 278
-291 630 -643 938 -935 1499 -1490 1503 -1487 1 2 4 361 6 799 l4 795 -61 38
c-328 207 -669 348 -1046 434 -47 11 -98 22 -115 25 -41 6 -119 20 -125 21 -3
1 -36 5 -75 9 -38 5 -79 11 -90 13 -25 6 -522 13 -527 8z"/>
<path d="M2650 6873 c-112 -19 -432 -119 -560 -176 -357 -157 -608 -311 -872
-534 -131 -111 -328 -312 -406 -415 -12 -15 62 -16 1075 -12 1771 8 1918 9
1921 18 6 12 -1101 1126 -1118 1124 -8 0 -26 -3 -40 -5z"/>
<path d="M5764 4671 c0 -862 4 -1507 9 -1504 5 3 141 136 304 297 162 160 415
409 561 552 l266 262 -23 103 c-131 585 -438 1144 -861 1570 -99 99 -241 229
-251 229 -3 0 -5 -679 -5 -1509z"/>
<path d="M585 5350 l-49 -5 -63 -105 c-75 -123 -196 -369 -242 -490 -18 -47
-37 -94 -41 -105 -52 -124 -141 -491 -156 -639 -3 -33 -8 -63 -9 -66 -17 -28
-27 -552 -13 -660 4 -25 7 -54 7 -66 1 -21 52 28 477 461 80 83 361 368 624
635 934 949 1018 1035 1015 1038 -6 6 -1495 8 -1550 2z"/>
<path d="M4666 4484 c-96 -19 -191 -63 -248 -114 -170 -151 -260 -348 -296
-645 -9 -79 -9 -385 0 -455 26 -193 75 -344 152 -473 85 -141 196 -229 347
-272 62 -17 180 -23 246 -11 24 4 45 7 48 7 13 -2 124 45 178 76 79 44 122 77
174 133 63 67 70 110 68 425 -2 389 -1 387 -300 390 -122 1 -190 -2 -211 -10
-48 -19 -73 -71 -71 -148 3 -112 44 -137 226 -137 l119 0 0 -147 c0 -110 -4
-154 -14 -170 -20 -31 -139 -100 -204 -117 -84 -22 -194 -15 -256 17 -99 50
-172 162 -213 327 -27 111 -35 196 -34 356 1 251 51 435 151 561 86 108 232
145 348 88 68 -34 103 -76 164 -200 59 -119 68 -131 105 -145 90 -34 164 66
152 205 -14 148 -107 301 -236 389 -101 68 -261 97 -395 70z"/>
<path d="M1781 4459 c-51 -10 -84 -41 -105 -95 -17 -46 -18 -93 -19 -854 0
-715 2 -811 16 -860 18 -62 48 -96 94 -109 17 -5 136 -9 265 -8 257 0 356 12
444 52 113 52 202 184 230 340 3 22 8 49 11 60 9 48 3 187 -11 256 -9 40 -28
98 -42 127 -29 59 -104 141 -153 166 -17 9 -31 19 -31 22 0 4 20 26 45 50 170
168 189 499 40 710 -91 127 -151 145 -500 148 -138 1 -266 -2 -284 -5z m517
-313 c85 -36 118 -108 109 -241 -6 -91 -23 -138 -64 -177 -47 -45 -93 -55
-265 -57 l-158 -2 0 251 0 252 168 -4 c130 -4 176 -9 210 -22z m32 -778 c42
-20 93 -72 109 -114 35 -89 27 -241 -18 -319 -47 -85 -116 -107 -336 -108
l-160 -2 -3 284 -2 283 187 -4 c145 -3 196 -8 223 -20z"/>
<path d="M3072 4458 c-44 -12 -89 -59 -103 -109 -17 -60 -21 -1629 -4 -1704
22 -94 62 -145 115 -145 63 0 106 47 128 140 6 26 10 172 10 338 0 161 3 296
7 300 3 3 77 7 163 8 86 0 167 4 179 8 13 4 35 10 50 12 51 9 144 67 189 117
94 105 136 258 130 477 -2 74 -6 146 -9 160 -4 14 -12 48 -18 75 -25 107 -101
221 -182 272 -72 45 -142 56 -394 57 -128 1 -245 -2 -261 -6z m459 -307 c93
-29 134 -113 134 -276 0 -124 -14 -172 -65 -223 -51 -51 -101 -64 -257 -69
l-123 -3 -1 30 c0 16 -1 46 -1 65 0 19 1 139 1 266 l1 231 138 -5 c75 -2 153
-10 173 -16z"/>
<path d="M1033 3674 c-442 -436 -933 -927 -933 -933 0 -3 11 -53 25 -111 142
-587 443 -1127 860 -1546 60 -60 139 -135 175 -165 36 -30 68 -58 71 -63 4 -4
9 -4 11 0 3 5 4 367 3 804 -2 437 -5 1113 -6 1503 -1 389 -4 707 -5 707 -2 0
-92 -88 -201 -196z"/>
<path d="M5917 2694 c-584 -586 -1062 -1068 -1062 -1072 0 -6 243 -9 1134 -12
l455 -2 68 108 c72 114 206 379 253 499 115 293 194 621 222 915 12 131 8 630
-5 630 -1 0 -481 -480 -1065 -1066z"/>
<path d="M1660 1343 l0 -801 108 -65 c315 -189 701 -342 1017 -403 11 -2 43
-8 70 -14 68 -13 102 -19 155 -26 25 -3 56 -7 69 -9 147 -24 704 -26 727 -2 5
4 -271 281 -683 683 -83 82 -359 354 -613 604 -515 507 -773 760 -819 804
l-31 30 0 -801z"/>
<path d="M4496 1243 c-1 -1 -295 -4 -654 -6 -358 -2 -654 -5 -656 -8 -8 -8
1115 -1129 1130 -1129 33 0 299 72 410 111 513 179 970 479 1333 875 59 63
106 117 130 147 13 17 -24 18 -838 15 -469 -2 -854 -4 -855 -5z"/>
</g>
</svg>
