<?xml version="1.0" encoding="utf-8"?>
<!-- Generator: Adobe Illustrator 20.1.0, SVG Export Plug-In . SVG Version: 6.00 Build 0)  -->
<svg version="1.1" xmlns="http://www.w3.org/2000/svg" xmlns:xlink="http://www.w3.org/1999/xlink" x="0px" y="0px"
	 viewBox="0 0 484.3 230" enable-background="new 0 0 484.3 230" xml:space="preserve">
<g id="shutter">
	<g id="Layer_2">
		<path fill="#60C2D0" d="M46.2,104c-11.1,11-22.2,22-33.3,33c1.5,7.6,4.8,19.2,12.4,31.5c7.2,11.6,15.4,19.4,21.2,24.2
			C46.4,163.1,46.3,133.6,46.2,104z"/>
	</g>
	<g id="Layer_3">
		<path fill="#60C2D0" d="M58.6,154.5c0,15.6,0,31.3,0,46.9c6.4,4.3,17,10.1,31.1,13.4c13.3,3.1,24.7,2.7,32.1,1.9
			C100.8,196,79.7,175.3,58.6,154.5z"/>
	</g>
	<g id="Layer_4">
		<path fill="#60C2D0" d="M102.8,181.3c11,11.1,22.1,22.1,33.1,33.2c7.6-1.5,19.2-4.8,31.5-12.5c11.6-7.2,19.4-15.5,24.1-21.3
			C162,180.9,132.4,181.1,102.8,181.3z"/>
	</g>
	<g id="Layer_5">
		<path fill="#60C2D0" d="M151.7,170.1c15.6,0.1,31.3,0.2,46.9,0.3c4.3-6.4,10.2-16.9,13.6-31c3.2-13.3,2.9-24.6,2.2-32.1
			C193.5,128.2,172.6,149.2,151.7,170.1z"/>
	</g>
	<g id="Layer_6">
		<path fill="#60C2D0" d="M178.7,125c11.1-11,22.3-21.9,33.4-32.9c-1.5-7.6-4.7-19.2-12.3-31.6c-7.1-11.6-15.3-19.5-21.1-24.3
			C178.7,65.9,178.7,95.5,178.7,125z"/>
	</g>
	<g id="Layer_7">
		<path fill="#60C2D0" d="M166.3,75.6c0.1-15.6,0.1-31.3,0.2-46.9c-6.4-4.3-16.9-10.2-31.1-13.5c-13.3-3.2-24.6-2.9-32.1-2.1
			C124.3,33.9,145.3,54.8,166.3,75.6z"/>
	</g>
	<g id="Layer_8">
		<path fill="#60C2D0" d="M122.1,49.2C111.1,38.1,100,27,89,15.9c-7.6,1.5-19.2,4.8-31.5,12.4c-11.6,7.2-19.4,15.4-24.1,21.3
			C62.9,49.5,92.5,49.3,122.1,49.2z"/>
	</g>
	<g id="Layer_9">
		<path fill="#60C2D0" d="M72.8,60.7c-15.6,0-31.3,0-46.9,0c-4.3,6.4-10.1,17-13.4,31.1c-3.1,13.3-2.8,24.7-1.9,32.1
			C31.3,102.9,52.1,81.8,72.8,60.7z"/>
	</g>
</g>
<g id="text">
	<g id="group">
		<text transform="matrix(1 0 0 1 222.8613 174.2422)" fill="#010202" font-family="'Nunito-Regular'" font-size="42.12px">Group</text>
	</g>
	<g id="photo">
		<text transform="matrix(1 0 0 1 222.8613 127.458)" fill="#010202" font-family="'Nunito-Regular'" font-size="42.12px">Photography</text>
	</g>
	<g id="bristol">
		<text transform="matrix(1 0 0 1 222.8613 80.4766)" fill="#010202" font-family="'Nunito-Regular'" font-size="42.12px">Bristol</text>
	</g>
</g>
<g id="bpg">
	<text transform="matrix(0.6689 0 0 1 54.4619 143.2192)" fill="#010202" font-family="'Nunito-Regular'" font-size="81.88px">BPG</text>
</g>
</svg>
