<?xml version="1.0" encoding="utf-8"?>
<!-- Generator: Adobe Illustrator 21.0.2, SVG Export Plug-In . SVG Version: 6.00 Build 0)  -->
<svg version="1.1" id="Layer_1" xmlns="http://www.w3.org/2000/svg" xmlns:xlink="http://www.w3.org/1999/xlink" x="0px" y="0px"
	 viewBox="0 0 204.9 204.8" style="enable-background:new 0 0 204.9 204.8;" xml:space="preserve">
<style type="text/css">
	.st0{fill:#60C2D0;}
</style>
<title>logosml</title>
<g id="shutter">
	<g id="Layer_2">
		<path class="st0" d="M36.2,91.4l-33.3,33c4.4,21.9,16.2,41.6,33.6,55.7L36.2,91.4z"/>
	</g>
	<g id="Layer_3">
		<path class="st0" d="M48.6,142v46.9c18.7,12.3,41,17.7,63.2,15.3L48.6,142z"/>
	</g>
	<g id="Layer_4">
		<path class="st0" d="M92.9,168.7L126,202c21.9-4.4,41.6-16.4,55.6-33.8L92.9,168.7z"/>
	</g>
	<g id="Layer_5">
		<path class="st0" d="M141.7,157.5l46.9,0.3c12.5-18.5,18.1-40.9,15.8-63.1L141.7,157.5z"/>
	</g>
	<g id="Layer_6">
		<path class="st0" d="M168.7,112.5l33.4-32.9c-4.3-21.9-16.1-41.7-33.4-55.8C168.7,53.3,168.7,82.9,168.7,112.5z"/>
	</g>
	<g id="Layer_7">
		<path class="st0" d="M156.3,63.1l0.2-46.9c-18.6-12.4-40.9-18-63.2-15.7L156.3,63.1z"/>
	</g>
	<g id="Layer_8">
		<path class="st0" d="M112.1,36.7L79,3.4C57.1,7.8,37.4,19.7,23.3,37.1L112.1,36.7z"/>
	</g>
	<g id="Layer_9">
		<path class="st0" d="M62.8,48.2H15.9C3.6,66.8-1.9,89.2,0.6,111.4L62.8,48.2z"/>
	</g>
</g>
<g id="bpg">
	<g>
		<path d="M64.7,130.7H53.2c-1.4,0.1-2.8-0.5-3.6-1.7c-0.8-1.6-1.2-3.5-1.1-5.3V81.2c0-2.5,0.4-4.3,1.1-5.4c0.8-1.1,2.2-1.7,3.5-1.6
			h12.2c1.6,0,3.2,0.1,4.7,0.5c1.3,0.3,2.5,1,3.5,1.9c0.9,0.9,1.7,1.9,2.4,3c0.7,1.3,1.2,2.6,1.6,4c0.4,1.5,0.5,3.1,0.5,4.7
			c0,5.6-1.9,9.8-5.7,12.4c5,2.4,7.4,7,7.4,13.8c0,2.9-0.5,5.8-1.6,8.5c-0.9,2.3-2.4,4.2-4.4,5.6c-1.2,0.7-2.6,1.3-4,1.5
			C68.2,130.5,66.5,130.7,64.7,130.7z M56.2,82.8v14.6h7c1.5,0.1,3-0.2,4.4-0.8c1.2-0.7,2-1.8,2.4-3.1c0.4-1.2,0.7-2.4,0.6-3.6
			c0-2.9-0.7-4.7-2-5.7s-3.4-1.4-6.2-1.4L56.2,82.8z M64.2,105.6h-8v16.5h8.2c5.2,0,7.7-2.8,7.7-8.4c0-2.9-0.7-4.9-2-6.2
			C68.8,106.2,66.8,105.6,64.2,105.6L64.2,105.6z"/>
		<path d="M101.2,108.7h-7v16c0.1,1.8-0.3,3.6-1.1,5.2c-0.7,1.5-2.4,2.2-3.9,1.6c-0.7-0.3-1.3-0.9-1.6-1.6c-0.8-1.6-1.2-3.4-1.1-5.1
			V81.2c0-2.5,0.4-4.3,1.2-5.4c0.9-1.1,2.3-1.7,3.7-1.6h9.8c2.3-0.1,4.6,0.2,6.7,1c1.6,0.7,3,1.8,4,3.2c1.2,1.6,2.1,3.5,2.6,5.5
			c0.6,2.4,0.9,4.8,0.9,7.3c0,5.8-1.2,10.1-3.6,13.1C109.4,107.2,105.9,108.7,101.2,108.7z M99.3,82.8h-5.1V100h5.1
			c1.6,0,3.1-0.2,4.5-0.8c1.2-0.6,2.2-1.6,2.8-2.8c1.4-3.6,1.2-7.7-0.5-11.1C105,83.6,102.8,82.8,99.3,82.8L99.3,82.8z"/>
		<path d="M156.2,107.7v10.8c0,1.2-0.1,2.3-0.3,3.4c-0.2,0.8-0.5,1.6-1,2.3c-0.6,0.7-1.2,1.4-1.9,2c-2,1.7-4.2,3-6.6,4
			c-2.2,0.9-4.5,1.3-6.9,1.3c-2.8,0-5.5-0.7-7.9-2c-2.5-1.4-4.6-3.4-6.1-5.8c-1.8-2.8-3.1-6-3.9-9.2c-0.9-4-1.4-8-1.3-12.1
			c0-4.1,0.4-8.1,1.3-12c0.7-3.3,2-6.4,3.9-9.3c1.6-2.4,3.7-4.4,6.2-5.8c2.5-1.4,5.4-2.1,8.3-2c4.5-0.1,8.7,1.9,11.5,5.3
			c1.2,1.5,2.1,3.1,2.8,4.9c0.6,1.5,0.9,3,0.9,4.6c0,1.3-0.3,2.6-1.1,3.7c-0.5,0.9-1.5,1.5-2.6,1.5c-0.6,0-1.1-0.2-1.6-0.6
			c-0.5-0.4-1-1-1.3-1.6c-0.7-1.7-1.5-3.4-2.4-5c-0.7-1.1-1.6-2.1-2.6-2.8c-1.3-0.8-2.7-1.2-4.2-1.2c-1.7,0-3.3,0.5-4.7,1.4
			c-1.5,1-2.7,2.4-3.6,4c-1.1,2-1.8,4.1-2.3,6.4c-0.5,2.8-0.8,5.6-0.8,8.4c0,6.6,1,11.7,3,15.3c2,3.6,4.9,5.3,8.5,5.3
			c1.7,0,3.4-0.3,5-1c1.7-0.8,3.3-1.8,4.7-3v-9.2h-5.9c-1.2,0.1-2.3-0.3-3.2-1c-0.8-0.9-1.2-2.1-1.1-3.3c0-1.1,0.3-2.2,0.9-3.1
			c0.6-0.8,1.5-1.3,2.5-1.2h8.6c0.9,0,1.8,0.1,2.7,0.4c0.8,0.4,1.5,1,1.8,1.9C156.1,104.7,156.3,106.2,156.2,107.7z"/>
	</g>
</g>
</svg>
